<svg width="35" height="33" viewBox="0 0 35 33" fill="none" xmlns="http://www.w3.org/2000/svg">
<g id="Cart">
<path id="Vector 155 (Stroke)" fill-rule="evenodd" clip-rule="evenodd" d="M0.0184523 0.756524C0.120359 0.246992 0.616028 -0.0834541 1.12556 0.0184523L2.90426 0.374192C4.77088 0.747516 6.17491 2.29592 6.36432 4.19007L6.53859 5.93279H29.8484C32.9968 5.93279 35.307 8.89156 34.5434 11.9459L32.6403 19.5584C31.8753 22.6182 29.126 24.7648 25.972 24.7648H10.7287C8.53642 24.7648 6.68987 23.1266 6.42867 20.9499L4.75075 6.96728L4.49194 4.3773C4.38482 3.30614 3.59082 2.43049 2.53522 2.21937L0.756524 1.86363C0.246992 1.76172 -0.0834541 1.26606 0.0184523 0.756524ZM6.74764 7.81451L8.29698 20.7257C8.4447 21.9567 9.48895 22.8831 10.7287 22.8831H25.972C28.2626 22.8831 30.2592 21.3242 30.8147 19.102L32.7178 11.4896C33.1845 9.62282 31.7726 7.81451 29.8484 7.81451H6.74764Z" fill="#2B77EB"/>
<path id="Line (Stroke)" fill-rule="evenodd" clip-rule="evenodd" d="M9.97754 16.4566C9.97754 15.9308 10.3913 15.5045 10.9016 15.5045H16.8158C17.3262 15.5045 17.7399 15.9308 17.7399 16.4566C17.7399 16.9824 17.3262 17.4086 16.8158 17.4086H10.9016C10.3913 17.4086 9.97754 16.9824 9.97754 16.4566Z" fill="#2B77EB"/>
<circle id="Ellipse 39" cx="11.9588" cy="29.7566" r="2.54254" fill="#2B77EB"/>
<circle id="Ellipse 40" cx="27.2139" cy="29.7566" r="2.54254" fill="#2B77EB"/>
</g>
</svg>
