<svg width="37" height="41" viewBox="0 0 37 41" fill="none" xmlns="http://www.w3.org/2000/svg">
<g id="Mask group">
<mask id="mask0_14_2167" style="mask-type:alpha" maskUnits="userSpaceOnUse" x="0" y="0" width="37" height="41">
<path id="Polygon 3" d="M14.8369 1.17144C16.9856 -0.0691088 19.6329 -0.0691105 21.7816 1.17144L33.1461 7.73277C35.2948 8.97332 36.6185 11.266 36.6185 13.7471V26.8697C36.6185 29.3508 35.2948 31.6434 33.1462 32.884L21.7816 39.4453C19.6329 40.6859 16.9856 40.6859 14.8369 39.4453L3.47235 32.884C1.32365 31.6434 0 29.3508 0 26.8697V13.7471C0 11.266 1.32365 8.97332 3.47235 7.73277L14.8369 1.17144Z" fill="#C4C4C4"/>
</mask>
<g mask="url(#mask0_14_2167)">
<rect id="Rectangle 4507" width="23.1744" height="23.1744" transform="matrix(0.866025 0.5 -0.866025 0.5 18.3096 -1.17798)" fill="#CFCFCF"/>
<rect id="Rectangle 4508" width="21.3236" height="21.3236" transform="matrix(0.866025 0.5 -2.20305e-08 1 -0.157959 10.5769)" fill="#767676"/>
<rect id="Rectangle 4509" width="21.3236" height="21.3236" transform="matrix(0.866025 -0.5 2.20305e-08 1 18.3096 21.2415)" fill="#201F22"/>
</g>
</g>
</svg>
